# xmcd
#
# Track frame offsets:
#	200
#	17150
#	37775
#	59225
#
# Disc length: 1135 seconds
# Revision: 0
# Processed by: cddbd v1.5.2PL0 Copyright (c) Steve Scherf et al.
# Submitted via: dBpowerAMP V12.0
#
DISCID=2e046d04
DTITLE=The Time Frequency - New Emotion
DYEAR=1992
DGENRE=Rave
TTITLE0=New Emotion [7" Version]
TTITLE1=Retribution 93 [The Prodigy Meets TTF]
TTITLE2=Higher Than Heaven [Remix]
TTITLE3=U41a
EXTD=
EXTT0=
EXTT1=
EXTT2=
EXTT3=
PLAYORDER=
